<svg xmlns="http://www.w3.org/2000/svg" width="1600" height="1000" viewBox="0 0 1600 1000">
<style>
  svg { background: #fbfaf7; }
  line { stroke: #9aa8a0; stroke-width: 3; opacity: .72; }
  text { text-anchor: middle; font-family: -apple-system, BlinkMacSystemFont, "PingFang SC", sans-serif; }
  .concept rect { fill: #fff0c9; stroke: #9b6e16; stroke-width: 2.5; }
  .concept text { fill: #583a00; font-size: 19px; font-weight: 650; }
  .source rect { fill: #eaf3ee; stroke: #315f4d; stroke-width: 2.5; }
  .source .id { fill: #173b2d; font-size: 19px; font-weight: 750; }
  .source .label { fill: #24483b; font-size: 16px; }
  .header { text-anchor: start; }
</style>
<rect width="1600" height="1000" fill="#fbfaf7"/>
<text x="60" y="52" class="header" font-size="27" font-weight="750" fill="#173b2d">Shilu associative recall · corpus graph overview</text>
<text x="60" y="82" class="header" font-size="17" fill="#53645c">Corpus-derived lossy routing projection — open selected sources before answering or citing</text>
<line x1="390" y1="199" x2="650" y2="466"/>
<line x1="390" y1="199" x2="650" y2="162"/>
<line x1="390" y1="199" x2="650" y2="314"/>
<line x1="390" y1="199" x2="650" y2="922"/>
<line x1="390" y1="296.1428571428571" x2="650" y2="466"/>
<line x1="390" y1="296.1428571428571" x2="650" y2="618"/>
<line x1="390" y1="296.1428571428571" x2="1120" y2="618"/>
<line x1="390" y1="296.1428571428571" x2="650" y2="314"/>
<line x1="390" y1="393.2857142857143" x2="650" y2="770"/>
<line x1="390" y1="393.2857142857143" x2="1120" y2="466"/>
<line x1="390" y1="393.2857142857143" x2="650" y2="922"/>
<line x1="390" y1="393.2857142857143" x2="1120" y2="922"/>
<line x1="390" y1="490.42857142857144" x2="1120" y2="770"/>
<line x1="390" y1="490.42857142857144" x2="650" y2="618"/>
<line x1="390" y1="490.42857142857144" x2="650" y2="162"/>
<line x1="390" y1="490.42857142857144" x2="650" y2="466"/>
<line x1="390" y1="587.5714285714286" x2="1120" y2="314"/>
<line x1="390" y1="587.5714285714286" x2="1120" y2="922"/>
<line x1="390" y1="587.5714285714286" x2="650" y2="162"/>
<line x1="390" y1="587.5714285714286" x2="650" y2="618"/>
<line x1="390" y1="684.7142857142857" x2="650" y2="314"/>
<line x1="390" y1="684.7142857142857" x2="1120" y2="922"/>
<line x1="390" y1="684.7142857142857" x2="650" y2="466"/>
<line x1="390" y1="684.7142857142857" x2="650" y2="770"/>
<line x1="390" y1="781.8571428571429" x2="1120" y2="770"/>
<line x1="390" y1="781.8571428571429" x2="650" y2="162"/>
<line x1="390" y1="781.8571428571429" x2="1120" y2="466"/>
<line x1="390" y1="781.8571428571429" x2="650" y2="618"/>
<line x1="390" y1="879" x2="650" y2="922"/>
<line x1="390" y1="879" x2="1120" y2="162"/>
<line x1="390" y1="879" x2="650" y2="314"/>
<line x1="390" y1="879" x2="1120" y2="314"/>
<g class="concept" transform="translate(90 160)"><rect width="300" height="78" rx="18"/><text x="150" y="47">事实权 / authority</text></g>
<g class="concept" transform="translate(90 257.1428571428571)"><rect width="300" height="78" rx="18"/><text x="150" y="47">索引 / recall projection</text></g>
<g class="concept" transform="translate(90 354.2857142857143)"><rect width="300" height="78" rx="18"/><text x="150" y="47">来源 / provenance</text></g>
<g class="concept" transform="translate(90 451.42857142857144)"><rect width="300" height="78" rx="18"/><text x="150" y="47">Agent proposal</text></g>
<g class="concept" transform="translate(90 548.5714285714286)"><rect width="300" height="78" rx="18"/><text x="150" y="47">deterministic commit</text></g>
<g class="concept" transform="translate(90 645.7142857142857)"><rect width="300" height="78" rx="18"/><text x="150" y="47">supersession / audit</text></g>
<g class="concept" transform="translate(90 742.8571428571429)"><rect width="300" height="78" rx="18"/><text x="150" y="47">uncertainty / review</text></g>
<g class="concept" transform="translate(90 840)"><rect width="300" height="78" rx="18"/><text x="150" y="47">self-contained evidence</text></g>
<g class="source" transform="translate(650 120)"><rect width="360" height="84" rx="16"/><text x="180" y="31" class="id">SHILU-S01</text><text x="180" y="59" class="label">DESIGN.md · Principles</text></g>
<g class="source" transform="translate(650 272)"><rect width="360" height="84" rx="16"/><text x="180" y="31" class="id">SHILU-S02</text><text x="180" y="59" class="label">DESIGN.md · Source / Entry / Entry Event</text></g>
<g class="source" transform="translate(650 424)"><rect width="360" height="84" rx="16"/><text x="180" y="31" class="id">SHILU-S03</text><text x="180" y="59" class="label">DESIGN.md · Indexes</text></g>
<g class="source" transform="translate(650 576)"><rect width="360" height="84" rx="16"/><text x="180" y="31" class="id">SHILU-S04</text><text x="180" y="59" class="label">DESIGN.md · Agent Interaction / Workflow</text></g>
<g class="source" transform="translate(650 728)"><rect width="360" height="84" rx="16"/><text x="180" y="31" class="id">SHILU-S05</text><text x="180" y="59" class="label">DESIGN.md · MCP Writes / Validation Rules</text></g>
<g class="source" transform="translate(650 880)"><rect width="360" height="84" rx="16"/><text x="180" y="31" class="id">SHILU-S06</text><text x="180" y="59" class="label">DESIGN.md · Source Content</text></g>
<g class="source" transform="translate(1120 120)"><rect width="360" height="84" rx="16"/><text x="180" y="31" class="id">SHILU-S07</text><text x="180" y="59" class="label">pkg/source/source.go · Normalize / StoreRaw</text></g>
<g class="source" transform="translate(1120 272)"><rect width="360" height="84" rx="16"/><text x="180" y="31" class="id">SHILU-S08</text><text x="180" y="59" class="label">pkg/core/core.go · Core invariant</text></g>
<g class="source" transform="translate(1120 424)"><rect width="360" height="84" rx="16"/><text x="180" y="31" class="id">SHILU-S09</text><text x="180" y="59" class="label">pkg/types/validation.go · ValidateEntry</text></g>
<g class="source" transform="translate(1120 576)"><rect width="360" height="84" rx="16"/><text x="180" y="31" class="id">SHILU-S10</text><text x="180" y="59" class="label">pkg/index/index.go · ftsQuery / Rebuild</text></g>
<g class="source" transform="translate(1120 728)"><rect width="360" height="84" rx="16"/><text x="180" y="31" class="id">SHILU-S11</text><text x="180" y="59" class="label">pkg/processor/types.go · DigestRequest / DigestResult</text></g>
<g class="source" transform="translate(1120 880)"><rect width="360" height="84" rx="16"/><text x="180" y="31" class="id">SHILU-S12</text><text x="180" y="59" class="label">pkg/core/entries.go · CreateEntry / SupersedeEntry</text></g>
</svg>
